<svg xmlns="http://www.w3.org/2000/svg" viewBox="0 0 32 32"><g data-name="3"><path d="M27,5.25H24.75V4.5A1.25,1.25,0,0,0,23.5,3.25h-1A1.25,1.25,0,0,0,21.25,4.5v.75H10.75V4.5A1.25,1.25,0,0,0,9.5,3.25h-1A1.25,1.25,0,0,0,7.25,4.5v.75H5A2.75,2.75,0,0,0,2.25,8V26A2.75,2.75,0,0,0,5,28.75H27A2.75,2.75,0,0,0,29.75,26V8A2.75,2.75,0,0,0,27,5.25Zm-4.25-.5h.5v2.5h-.5Zm-14,0h.5v2.5h-.5ZM5,6.75H7.25V7.5A1.25,1.25,0,0,0,8.5,8.75h1A1.25,1.25,0,0,0,10.75,7.5V6.75h10.5V7.5A1.25,1.25,0,0,0,22.5,8.75h1A1.25,1.25,0,0,0,24.75,7.5V6.75H27A1.25,1.25,0,0,1,28.25,8v2.21H3.75V8A1.25,1.25,0,0,1,5,6.75Zm22,20.5H5A1.25,1.25,0,0,1,3.75,26V11.71h24.5V26A1.25,1.25,0,0,1,27,27.25Z"/><path d="M13.56 13.31H7.68a.75.75 0 0 0-.75.75v4.32a.75.75 0 0 0 .75.75h5.88a.76.76 0 0 0 .75-.75V14.06A.76.76 0 0 0 13.56 13.31zm-.75 4.32H8.43V14.81h4.38zM24.32 13.31H18.44a.76.76 0 0 0-.75.75v4.32a.76.76 0 0 0 .75.75h5.88a.75.75 0 0 0 .75-.75V14.06A.75.75 0 0 0 24.32 13.31zm-.75 4.32H19.19V14.81h4.38zM13.56 20.21H7.68a.74.74 0 0 0-.75.75v4.31a.75.75 0 0 0 .75.75h5.88a.76.76 0 0 0 .75-.75V21A.75.75 0 0 0 13.56 20.21zm-.75 4.31H8.43V21.71h4.38zM24.32 20.21H18.44a.75.75 0 0 0-.75.75v4.31a.76.76 0 0 0 .75.75h5.88a.75.75 0 0 0 .75-.75V21A.74.74 0 0 0 24.32 20.21zm-.75 4.31H19.19V21.71h4.38z"/></g></svg>