<svg xmlns="http://www.w3.org/2000/svg" data-name="Layer 1" viewBox="0 0 24 24"><path d="M17.086,1.223a6.748,6.748,0,0,0-4.96,2.155L12,3.511l-.123-.129a6.794,6.794,0,0,0-9.713-.227A7.748,7.748,0,0,0,2.146,13.9l7.433,7.827a3.314,3.314,0,0,0,4.842,0L21.854,13.9a7.748,7.748,0,0,0-.017-10.744A6.811,6.811,0,0,0,17.086,1.223Zm3.317,11.3L12.971,20.35a1.346,1.346,0,0,1-1.942,0L3.6,12.523a5.792,5.792,0,0,1-.044-7.929A4.821,4.821,0,0,1,6.914,3.223a4.772,4.772,0,0,1,3.509,1.532l.852.9a1.028,1.028,0,0,0,1.45,0l.855-.9a4.772,4.772,0,0,1,3.506-1.528A4.822,4.822,0,0,1,20.448,4.6,5.792,5.792,0,0,1,20.4,12.523Z"/></svg>