<svg xmlns="http://www.w3.org/2000/svg" enable-background="new 0 0 60 60" viewBox="0 0 60 60"><path fill="#2B79C2" d="M53.8798332,40.7001839c-4.4799805,8.2099609-13.0599976,13.2999878-22.3900146,13.2999878
	c-14.0599976,0-25.4899902-11.4299927-25.4899902-25.4899902c0-9.3300171,5.0900269-17.9100342,13.2999878-22.3900146
	c0.3900146-0.210022,0.8699951-0.1400146,1.1799927,0.1699829c0.3200073,0.3200073,0.3900146,0.7999878,0.1700439,1.1900024
	c-1.8900146,3.4400024-2.8800049,7.3300171-2.8800049,11.2700195c0,12.9500122,10.5299683,23.4799805,23.4799805,23.4799805
	c3.9400024,0,7.8300171-0.9899902,11.2700195-2.8800049c0.3899536-0.2199707,0.8699951-0.1499634,1.1900024,0.1699829
	C54.0198479,39.8301277,54.0898552,40.3101692,53.8798332,40.7001839z"/></svg>